<?xml version="1.0" standalone="no"?>
<!DOCTYPE svg PUBLIC "-//W3C//DTD SVG 20010904//EN"
 "http://www.w3.org/TR/2001/REC-SVG-20010904/DTD/svg10.dtd">
<svg version="1.0" xmlns="http://www.w3.org/2000/svg"
 width="1545.000000pt" height="1545.000000pt" viewBox="0 0 1545.000000 1545.000000"
 preserveAspectRatio="xMidYMid meet">
<metadata>
Created by potrace 1.11, written by Peter Selinger 2001-2013
</metadata>
<g transform="translate(0.000000,1545.000000) scale(0.100000,-0.100000)"
fill="#000000" stroke="none">
<path d="M737 15199 c-68 -16 -118 -63 -133 -125 -12 -52 -13 -525 -1 -583 14
-67 63 -124 122 -140 27 -7 233 -11 600 -11 601 -1 632 -4 735 -53 64 -30 78
-41 107 -82 53 -76 50 194 48 -4240 l-1 -4110 -21 -40 c-43 -82 -127 -141
-230 -161 -21 -4 -292 -9 -603 -11 -345 -2 -586 -8 -618 -14 -70 -14 -123 -64
-138 -130 -12 -53 -12 -536 0 -592 11 -51 69 -112 121 -126 48 -13 4709 -16
4765 -2 20 4 45 13 57 19 29 16 28 16 31 -15 1 -16 4 -39 7 -53 3 -14 8 -45
11 -70 3 -25 12 -76 19 -115 8 -38 17 -86 20 -105 15 -88 60 -278 112 -470 28
-105 121 -398 131 -415 3 -5 7 -14 8 -20 1 -5 20 -55 42 -110 104 -260 243
-543 370 -755 56 -95 175 -283 182 -290 3 -3 18 -25 35 -50 16 -25 39 -57 50
-71 11 -15 29 -39 40 -55 40 -56 178 -230 219 -276 22 -25 64 -72 91 -104 66
-75 234 -244 319 -319 37 -33 73 -65 79 -71 23 -20 263 -209 279 -219 9 -5 65
-44 124 -86 96 -67 235 -154 351 -220 203 -116 533 -261 777 -341 241 -79 621
-167 828 -192 23 -3 62 -8 87 -11 25 -4 60 -8 76 -10 206 -27 861 -27 990 0
11 2 47 7 80 10 272 27 762 150 1013 256 12 5 32 13 45 18 48 20 296 142 367
182 92 51 255 159 375 247 85 63 100 75 151 119 12 10 43 36 69 58 87 72 329
319 404 411 274 338 481 693 638 1089 46 116 129 360 153 450 10 39 21 77 24
85 3 8 8 28 10 43 3 16 9 43 14 60 9 27 30 119 47 195 3 12 7 32 10 44 3 13 8
37 11 53 3 17 9 48 14 70 10 44 48 264 55 317 2 18 7 60 11 93 3 33 8 63 10
66 6 11 -20 95 -37 120 -22 31 -61 58 -97 67 -15 4 -148 7 -297 7 -260 0 -272
-1 -316 -23 -60 -29 -83 -74 -106 -207 -4 -28 -48 -261 -59 -315 -3 -14 -7
-33 -10 -42 -3 -9 -7 -26 -9 -37 -12 -61 -73 -275 -116 -406 -133 -403 -319
-775 -523 -1048 -186 -250 -434 -482 -696 -652 -88 -57 -323 -179 -430 -223
-112 -45 -303 -108 -365 -119 -11 -2 -36 -8 -55 -13 -77 -20 -227 -42 -390
-57 -165 -15 -623 -8 -725 12 -11 3 -40 7 -65 10 -242 28 -535 123 -783 253
-247 129 -474 309 -657 521 -30 35 -59 69 -65 75 -60 66 -214 293 -280 411
-224 400 -415 924 -491 1345 -41 224 -48 270 -69 410 -9 60 -21 161 -30 255
-3 39 -8 84 -10 100 -2 17 -7 73 -11 125 -3 52 -8 97 -9 100 -2 3 0 12 5 20 7
12 12 12 27 -2 38 -33 192 -106 298 -140 110 -36 260 -70 385 -87 67 -10 400
-7 458 3 17 3 44 8 60 10 107 16 272 61 382 103 347 135 654 430 846 813 72
143 179 434 198 536 2 16 9 45 15 64 6 19 12 46 15 60 3 14 16 79 30 145 43
210 58 318 90 687 10 112 -45 203 -137 226 -62 16 -483 16 -545 0 -49 -12 -96
-47 -117 -88 -15 -30 -23 -78 -30 -190 -8 -120 -23 -277 -30 -315 -2 -11 -7
-42 -10 -70 -39 -328 -179 -629 -327 -706 -48 -25 -81 -24 -134 3 -175 87
-358 476 -523 1112 -17 65 -33 128 -35 140 -2 11 -11 48 -19 81 -9 33 -18 71
-21 85 -2 14 -28 117 -56 230 -28 113 -53 214 -56 225 -14 70 -115 421 -167
584 -53 166 -67 200 -97 231 -19 20 -43 40 -52 43 -16 6 -15 11 8 64 121 273
252 491 412 688 127 155 304 333 410 412 20 15 39 30 42 34 13 14 153 107 227
150 276 160 533 242 868 278 80 9 460 6 525 -4 38 -5 143 -22 200 -31 177 -29
508 -165 718 -296 62 -39 201 -137 229 -162 6 -6 31 -27 54 -46 120 -101 257
-238 369 -370 25 -29 50 -58 55 -64 6 -6 37 -47 71 -91 254 -334 520 -859 721
-1425 98 -275 283 -881 283 -926 0 -25 74 -92 115 -103 53 -15 507 -15 560 0
72 20 128 103 128 189 0 40 -12 328 -18 415 -2 44 -7 150 -10 235 -3 85 -8
189 -10 230 -2 41 -6 145 -10 230 -3 85 -8 191 -10 235 -2 44 -7 148 -10 230
-3 83 -8 184 -10 225 -2 41 -7 143 -10 225 -3 83 -8 186 -10 230 -5 93 -13
290 -20 460 -3 66 -7 170 -10 230 -3 61 -7 164 -10 230 -3 66 -7 176 -11 245
-7 161 -11 249 -19 445 -9 240 -24 286 -104 327 -45 22 -54 23 -291 23 -135 0
-257 -3 -272 -7 -15 -4 -43 -19 -63 -34 -38 -29 -59 -70 -377 -732 -46 -96
-50 -103 -68 -90 -92 64 -355 237 -435 285 -164 98 -193 113 -356 195 -258
128 -490 213 -767 283 -128 32 -159 39 -222 51 -14 2 -36 7 -50 10 -28 7 -34
8 -135 23 -183 28 -301 36 -550 36 -201 0 -450 -11 -465 -20 -3 -2 -30 -6 -61
-9 -47 -5 -164 -26 -349 -62 -74 -14 -359 -93 -458 -126 -56 -19 -102 -34
-102 -32 0 1 21 26 46 56 77 89 220 313 283 441 51 106 122 290 136 352 2 11
10 45 18 75 24 87 42 178 52 249 3 25 8 47 10 50 16 27 24 409 12 563 -26 331
-122 682 -262 953 -44 87 -191 315 -233 363 -11 13 -35 42 -53 65 -59 74 -261
272 -349 341 -47 37 -92 73 -101 80 -9 8 -69 48 -133 90 -408 270 -882 428
-1561 520 -16 3 -66 8 -110 11 -44 4 -96 10 -115 13 -61 10 -5642 11 -5683 1z
m4938 -873 c44 -3 112 -8 150 -10 86 -5 209 -16 250 -21 17 -2 53 -7 80 -10
351 -44 567 -127 738 -284 82 -75 94 -88 148 -156 160 -203 270 -451 324 -733
2 -13 9 -60 15 -105 6 -45 13 -95 15 -112 25 -180 25 -669 1 -825 -2 -14 -7
-47 -11 -75 -8 -64 -31 -180 -45 -225 -6 -19 -13 -42 -15 -50 -15 -69 -138
-340 -157 -348 -5 -2 -8 -9 -8 -14 0 -17 -101 -147 -164 -210 -234 -236 -728
-451 -1176 -512 -19 -2 -57 -8 -85 -11 -27 -4 -61 -8 -74 -10 -13 -3 -58 -7
-100 -11 -42 -4 -92 -9 -111 -11 -19 -2 -347 -7 -728 -10 l-692 -5 0 1769 c1
1694 1 1770 19 1808 24 52 61 90 105 109 20 8 36 12 36 9 0 -3 6 -1 13 5 12
10 35 15 127 27 78 10 122 14 235 21 61 3 112 8 114 9 5 6 907 -3 996 -9z
m1705 -4217 c-98 -90 -144 -135 -213 -209 l-68 -73 -27 26 c-15 14 -83 49
-152 78 -204 84 -193 74 -103 89 93 14 441 92 533 119 36 10 70 19 75 20 6 0
-15 -22 -45 -50z m-2438 -390 c248 -23 378 -49 569 -115 115 -40 314 -140 422
-212 121 -80 282 -238 356 -347 30 -44 60 -83 67 -88 7 -4 20 -14 28 -22 8 -8
22 -15 30 -15 9 0 16 -2 16 -4 0 -3 -23 -44 -51 -93 -59 -102 -210 -396 -256
-498 -17 -38 -46 -104 -63 -145 -18 -41 -40 -93 -50 -115 -10 -22 -39 -98 -64
-170 -26 -71 -53 -143 -59 -160 -7 -16 -12 -32 -12 -35 -1 -7 -75 -241 -85
-270 -11 -31 -85 -325 -106 -423 -35 -161 -58 -283 -70 -357 -2 -19 -7 -46 -9
-60 -3 -14 -7 -47 -11 -75 -3 -27 -8 -57 -9 -65 -2 -9 -6 -43 -10 -75 -3 -33
-8 -73 -10 -90 -4 -29 -13 -123 -20 -215 -2 -25 -7 -130 -10 -235 -4 -104 -8
-195 -10 -202 -3 -8 -13 -9 -37 -3 -18 5 -292 11 -608 13 -316 2 -588 7 -605
11 -81 19 -162 54 -193 83 -7 6 -21 32 -32 58 -19 45 -20 76 -20 1991 l0 1945
412 -2 c227 -1 452 -6 500 -10z"/>
</g>
</svg>
